<?xml version="1.0" encoding="UTF-8" standalone="no"?>
<!-- Created with Inkscape (http://www.inkscape.org/) -->

<svg
   version="1.1"
   id="svg25"
   xml:space="preserve"
   width="86.666664"
   height="86.666664"
   viewBox="0 0 86.666664 86.666664"
   sodipodi:docname="zitac.svg"
   inkscape:export-filename="ZitacLogo.png"
   inkscape:export-xdpi="110.76923"
   inkscape:export-ydpi="110.76923"
   inkscape:version="1.1.2 (0a00cf5339, 2022-02-04)"
   xmlns:inkscape="http://www.inkscape.org/namespaces/inkscape"
   xmlns:sodipodi="http://sodipodi.sourceforge.net/DTD/sodipodi-0.dtd"
   xmlns="http://www.w3.org/2000/svg"
   xmlns:svg="http://www.w3.org/2000/svg"><defs
     id="defs29"><clipPath
       clipPathUnits="userSpaceOnUse"
       id="clipPath39"><path
         d="M 0,120 H 120 V 0 H 0 Z"
         id="path37" /></clipPath></defs><sodipodi:namedview
     id="namedview27"
     pagecolor="#ffffff"
     bordercolor="#666666"
     borderopacity="1.0"
     inkscape:pageshadow="2"
     inkscape:pageopacity="0.0"
     inkscape:pagecheckerboard="0"
     showgrid="false"
     inkscape:zoom="7.21875"
     inkscape:cx="12.536797"
     inkscape:cy="18.493506"
     inkscape:window-width="2560"
     inkscape:window-height="1408"
     inkscape:window-x="5120"
     inkscape:window-y="0"
     inkscape:window-maximized="1"
     inkscape:current-layer="g31" /><g
     id="g31"
     inkscape:groupmode="layer"
     inkscape:label="Z_symbol_Pantone7461"
     transform="matrix(1.3333333,0,0,-1.3333333,-36.667199,120.66693)"><g
       id="g33"
       inkscape:export-filename="/home/kenny/Downloads/g33.png"
       inkscape:export-xdpi="110.76923"
       inkscape:export-ydpi="110.76923"
       transform="matrix(0.83219671,0,0,0.83076767,10.187507,9.853259)"><g
         id="g35"
         clip-path="url(#clipPath39)"><g
           id="g41"
           transform="translate(68.9524,68.7682)"><path
             d="m 0,0 -9.977,-17.926 v -0.063 h 7.793 c 0.649,0 1.122,-0.497 1.122,-1.183 v -2.863 c 0,-0.622 -0.473,-1.182 -1.122,-1.182 h -14.582 c -0.591,0 -1.122,0.56 -1.122,1.182 v 0.623 l 10.037,17.739 v 0.063 h -8.384 c -0.591,0 -1.062,0.56 -1.062,1.183 v 2.925 c 0,0.685 0.471,1.183 1.062,1.183 H -1.003 C -0.117,1.681 0.473,0.809 0,0 m -8.952,21.732 c -17.95,0 -32.5,-14.551 -32.5,-32.5 0,-17.949 14.55,-32.5 32.5,-32.5 17.949,0 32.5,14.551 32.5,32.5 0,17.949 -14.551,32.5 -32.5,32.5"
             style="fill:#007cbb;fill-opacity:1;fill-rule:nonzero;stroke:none"
             id="path43" /></g></g></g></g></svg>
